<svg xmlns="http://www.w3.org/2000/svg" viewBox="0 0 1400 900" role="img" aria-label="">
  <defs>
    <linearGradient id="paper" x1="0" y1="0" x2="1" y2="1">
      <stop offset="0" stop-color="#f6f1ee"/>
      <stop offset="1" stop-color="#D6CFCB"/>
    </linearGradient>
    <linearGradient id="mauvePencil" x1="0" y1="0" x2="1" y2="1">
      <stop offset="0" stop-color="#A6808C"/>
      <stop offset="1" stop-color="#CCB7AE"/>
    </linearGradient>
    <filter id="softShadow" x="-20%" y="-20%" width="140%" height="140%">
      <feDropShadow dx="0" dy="18" stdDeviation="22" flood-color="#565264" flood-opacity="0.14"/>
    </filter>
  </defs>

  <rect width="1400" height="900" fill="#D6CFCB"/>
  <circle cx="205" cy="160" r="120" fill="#CCB7AE" opacity="0.42"/>
  <circle cx="1180" cy="690" r="170" fill="#A6808C" opacity="0.26"/>
  <circle cx="1110" cy="130" r="84" fill="#706677" opacity="0.24"/>
  <path d="M-40 715 C210 650 290 790 470 735 C690 668 740 544 950 598 C1110 640 1210 740 1452 650 L1452 930 L-40 930 Z" fill="#CCB7AE" opacity="0.50"/>

  <g filter="url(#softShadow)" opacity="0.95">
    <g transform="translate(110 415) rotate(-8)">
      <rect x="0" y="0" width="250" height="320" rx="28" fill="url(#paper)"/>
      <rect x="35" y="55" width="180" height="16" rx="8" fill="#706677"/>
      <rect x="35" y="100" width="138" height="13" rx="6.5" fill="#CCB7AE"/>
      <rect x="35" y="136" width="178" height="13" rx="6.5" fill="#CCB7AE"/>
      <rect x="35" y="172" width="126" height="13" rx="6.5" fill="#CCB7AE"/>
      <rect x="35" y="220" width="34" height="34" rx="9" fill="#D6CFCB"/>
      <path d="M44 237 l8 8 18-21" fill="none" stroke="#565264" stroke-width="8" stroke-linecap="round" stroke-linejoin="round"/>
      <rect x="82" y="230" width="120" height="12" rx="6" fill="#A6808C" opacity="0.62"/>
    </g>

    <g transform="translate(1008 250) rotate(9)">
      <rect x="0" y="0" width="292" height="235" rx="28" fill="#f6f1ee"/>
      <rect x="34" y="38" width="224" height="34" rx="12" fill="#A6808C"/>
      <g fill="none" stroke="#CCB7AE" stroke-width="5">
        <path d="M36 100 H256"/>
        <path d="M36 144 H256"/>
        <path d="M36 188 H256"/>
        <path d="M94 96 V210"/>
        <path d="M160 96 V210"/>
        <path d="M226 96 V210"/>
      </g>
      <circle cx="64" cy="122" r="10" fill="#565264"/>
      <circle cx="128" cy="166" r="10" fill="#A6808C"/>
      <circle cx="194" cy="122" r="10" fill="#706677"/>
    </g>

    <g transform="translate(555 565) rotate(-15)">
      <rect x="0" y="0" width="330" height="60" rx="30" fill="url(#mauvePencil)"/>
      <rect x="260" y="0" width="70" height="60" rx="30" fill="#565264"/>
      <path d="M330 30 L390 4 L390 56 Z" fill="#D6CFCB"/>
      <path d="M383 30 L404 20 L404 40 Z" fill="#312d35"/>
      <rect x="42" y="21" width="160" height="18" rx="9" fill="#f6f1ee" opacity="0.82"/>
    </g>
  </g>

  <g opacity="0.78">
    <path d="M455 150 l18 42 42 18-42 18-18 42-18-42-42-18 42-18z" fill="#A6808C"/>
    <path d="M875 118 l11 26 26 11-26 11-11 26-11-26-26-11 26-11z" fill="#706677"/>
    <path d="M1014 690 l14 31 31 14-31 14-14 31-14-31-31-14 31-14z" fill="#CCB7AE"/>
    <circle cx="433" cy="725" r="18" fill="#565264"/>
    <circle cx="1260" cy="525" r="14" fill="#706677"/>
    <circle cx="710" cy="125" r="11" fill="#A6808C"/>
  </g>
</svg>
